<?xml version="1.0" encoding="utf-8"?>
<!-- Generator: Adobe Illustrator 16.0.0, SVG Export Plug-In . SVG Version: 6.00 Build 0)  -->
<!DOCTYPE svg PUBLIC "-//W3C//DTD SVG 1.1//EN" "http://www.w3.org/Graphics/SVG/1.1/DTD/svg11.dtd">
<svg version="1.1" id="Ebene_1" xmlns="http://www.w3.org/2000/svg" xmlns:xlink="http://www.w3.org/1999/xlink" x="0px" y="0px"
	 width="240px" height="240px" viewBox="0 0 240 240" enable-background="new 0 0 240 240" xml:space="preserve">
<g>
	<path d="M26.103,87.839v63.371H49.7c15.604,0,21.028-7.993,21.028-17.032v-29.306c0-9.135-5.424-17.032-21.028-17.032H26.103
		L26.103,87.839z M38.091,98.401h10.372c8.088,0,10.276,3.235,10.276,9.325v23.597c0,6.09-2.188,9.325-10.276,9.325H38.091V98.401
		L38.091,98.401z"/>
	<path d="M152.818,151.209h12.56l-19.981-63.371h-16.747l-19.981,63.371h12.56l3.997-13.131h23.502L152.818,151.209L152.818,151.209
		z M137.022,97.735l8.659,29.972h-17.508L137.022,97.735L137.022,97.735z"/>
	<polygon points="90.548,151.209 90.548,125.804 106.09,125.804 106.09,115.242 90.548,115.242 90.548,98.401 117.762,98.401 
		117.762,87.839 78.56,87.839 78.56,151.209 90.548,151.209 	"/>
	<path d="M201.909,87.839v44.055c0,6.185-2.95,9.706-11.418,9.706c-8.47,0-11.418-3.521-11.418-9.706V87.839h-11.989v45.006
		c0,9.991,5.613,19.315,23.407,19.315c17.793,0,23.406-9.325,23.406-19.315V87.839H201.909L201.909,87.839z"/>
</g>
</svg>
